<svg viewBox="0 0 29 29" xmlns="http://www.w3.org/2000/svg" fill="red">
	<path fill-rule="evenodd" d="M19.334 10.875a4.834 4.834 0 1 1 -9.666 0 4.834 4.834 0 0 1 9.666 0Zm-2.416 0a2.416 2.416 0 1 1 -4.834 0 2.416 2.416 0 0 1 4.834 0Z"/>
	<path fill-rule="evenodd" d="M14.5 1.209C7.16 1.209 1.209 7.16 1.209 14.5S7.16 27.791 14.5 27.791 27.791 21.84 27.791 14.5 21.84 1.209 14.5 1.209ZM3.625 14.5a10.835 10.835 0 0 0 2.307 6.697 10.857 10.857 0 0 1 8.648 -4.281 10.855 10.855 0 0 1 8.571 4.178A10.875 10.875 0 1 0 3.625 14.5ZM14.5 25.375a10.829 10.829 0 0 1 -6.853 -2.432 8.448 8.448 0 0 1 6.932 -3.609 8.447 8.447 0 0 1 6.874 3.529A10.833 10.833 0 0 1 14.5 25.375Z"/>
</svg>