<svg width="20" height="20" viewBox="0 0 0.7 0.7" xmlns="http://www.w3.org/2000/svg"><path d="M.296.567a.012.012 0 0 1-.014-.01L.262.352a.012.012 0 0 1 .01-.014h.012a.012.012 0 0 1 .014.01L.32.553a.012.012 0 0 1-.01.014H.296ZM.403.566a.012.012 0 0 1-.01-.013L.414.348a.012.012 0 0 1 .014-.01L.44.339a.012.012 0 0 1 .01.014L.429.557a.012.012 0 0 1-.014.01L.403.566Z"/><path d="M.298.026a.036.036 0 0 0-.034.022L.238.11H.122a.048.048 0 0 0-.048.048v.06a.048.048 0 0 0 .042.048l.074.39a.024.024 0 0 0 .023.019h.294A.024.024 0 0 0 .533.654L.586.265a.048.048 0 0 0 .04-.047v-.06A.048.048 0 0 0 .578.11H.462L.434.046A.036.036 0 0 0 .402.025H.298ZM.409.11.4.088A.024.024 0 0 0 .378.074H.322a.024.024 0 0 0-.023.014L.29.11h.118Zm.127.167a.01.01 0 0 0-.01-.011H.178a.01.01 0 0 0-.01.012L.23.607a.026.026 0 0 0 .025.021h.212A.026.026 0 0 0 .491.606L.537.277ZM.554.218A.024.024 0 0 0 .578.194V.182A.024.024 0 0 0 .554.158H.146a.024.024 0 0 0-.024.024v.012a.024.024 0 0 0 .024.024h.406Z" fill-rule="evenodd"/></svg>